<?xml version="1.0" standalone="no"?>
<!DOCTYPE svg PUBLIC "-//W3C//DTD SVG 20010904//EN"
 "http://www.w3.org/TR/2001/REC-SVG-20010904/DTD/svg10.dtd">
<svg version="1.0" xmlns="http://www.w3.org/2000/svg"
 width="512.000000pt" height="512.000000pt" viewBox="0 0 512.000000 512.000000"
 preserveAspectRatio="xMidYMid meet">

<g transform="translate(0.000000,512.000000) scale(0.100000,-0.100000)"
fill="#000000" stroke="none">
<path d="M1119 4435 c-155 -29 -264 -73 -482 -192 -75 -41 -261 -225 -326
-322 -130 -194 -182 -323 -207 -505 -25 -194 -15 -396 27 -556 22 -81 118
-285 134 -285 6 0 33 34 60 75 79 120 257 289 357 339 29 15 89 46 133 69 112
57 283 105 415 114 l35 3 6 125 c6 126 32 246 79 372 27 73 175 319 205 341
14 10 25 25 25 32 0 8 30 39 68 68 37 30 85 71 107 92 22 20 60 46 85 56 24
11 48 26 52 32 14 23 -145 90 -302 129 -111 27 -360 34 -471 13z"/>
<path d="M2359 4435 c-155 -29 -264 -73 -482 -192 -75 -41 -261 -225 -326
-322 -130 -194 -182 -323 -207 -505 -25 -194 -15 -396 27 -556 26 -97 135
-321 153 -314 7 3 13 10 13 17 0 7 17 39 38 72 65 101 252 276 347 324 29 15
89 46 133 69 149 76 316 114 505 114 189 0 356 -38 505 -114 44 -23 104 -54
133 -69 104 -52 293 -235 361 -347 52 -86 49 -87 114 43 89 178 122 330 122
560 0 302 -67 501 -250 750 -70 93 -220 236 -296 279 -270 154 -410 197 -659
202 -105 2 -179 -1 -231 -11z"/>
<path d="M3640 4443 c-131 -21 -263 -60 -356 -107 -71 -35 -72 -44 -4 -75 25
-10 63 -36 85 -56 22 -21 70 -62 108 -92 37 -29 67 -60 67 -68 0 -7 11 -22 25
-32 30 -22 178 -268 205 -341 47 -126 73 -246 79 -372 l6 -125 35 -3 c132 -9
303 -57 415 -114 44 -23 104 -54 133 -69 99 -50 277 -219 357 -338 28 -42 55
-75 60 -76 16 0 112 204 134 285 42 160 52 362 27 556 -25 182 -77 311 -207
505 -65 97 -251 281 -326 322 -224 123 -330 164 -490 192 -78 14 -289 19 -353
8z"/>
</g>
</svg>
